<svg id="visual" viewBox="0 0 960 540" width="960" height="540" xmlns="http://www.w3.org/2000/svg"
    xmlns:xlink="http://www.w3.org/1999/xlink" version="1.1">
    <rect x="0" y="0" width="960" height="540" fill="#573f00"></rect>
    <path
        d="M890 0L756 0L756 28L733 28L733 57L825 57L825 85L822 85L822 114L858 114L858 142L715 142L715 171L889 171L889 199L703 199L703 227L914 227L914 256L709 256L709 284L757 284L757 313L751 313L751 341L758 341L758 369L786 369L786 398L850 398L850 426L737 426L737 455L847 455L847 483L742 483L742 512L815 512L815 540L0 540L0 512L0 512L0 483L0 483L0 455L0 455L0 426L0 426L0 398L0 398L0 369L0 369L0 341L0 341L0 313L0 313L0 284L0 284L0 256L0 256L0 227L0 227L0 199L0 199L0 171L0 171L0 142L0 142L0 114L0 114L0 85L0 85L0 57L0 57L0 28L0 28L0 0L0 0Z"
        fill="#de7e08"></path>
    <path
        d="M723 0L755 0L755 28L841 28L841 57L796 57L796 85L716 85L716 114L742 114L742 142L727 142L727 171L683 171L683 199L690 199L690 227L768 227L768 256L735 256L735 284L749 284L749 313L837 313L837 341L833 341L833 369L638 369L638 398L817 398L817 426L639 426L639 455L737 455L737 483L722 483L722 512L730 512L730 540L0 540L0 512L0 512L0 483L0 483L0 455L0 455L0 426L0 426L0 398L0 398L0 369L0 369L0 341L0 341L0 313L0 313L0 284L0 284L0 256L0 256L0 227L0 227L0 199L0 199L0 171L0 171L0 142L0 142L0 114L0 114L0 85L0 85L0 57L0 57L0 28L0 28L0 0L0 0Z"
        fill="#d4750c"></path>
    <path
        d="M628 0L762 0L762 28L627 28L627 57L741 57L741 85L697 85L697 114L648 114L648 142L758 142L758 171L688 171L688 199L661 199L661 227L768 227L768 256L594 256L594 284L658 284L658 313L672 313L672 341L771 341L771 369L758 369L758 398L727 398L727 426L705 426L705 455L695 455L695 483L581 483L581 512L758 512L758 540L0 540L0 512L0 512L0 483L0 483L0 455L0 455L0 426L0 426L0 398L0 398L0 369L0 369L0 341L0 341L0 313L0 313L0 284L0 284L0 256L0 256L0 227L0 227L0 199L0 199L0 171L0 171L0 142L0 142L0 114L0 114L0 85L0 85L0 57L0 57L0 28L0 28L0 0L0 0Z"
        fill="#c96c0f"></path>
    <path
        d="M664 0L551 0L551 28L546 28L546 57L629 57L629 85L653 85L653 114L681 114L681 142L602 142L602 171L641 171L641 199L577 199L577 227L657 227L657 256L651 256L651 284L590 284L590 313L624 313L624 341L529 341L529 369L641 369L641 398L644 398L644 426L697 426L697 455L617 455L617 483L669 483L669 512L527 512L527 540L0 540L0 512L0 512L0 483L0 483L0 455L0 455L0 426L0 426L0 398L0 398L0 369L0 369L0 341L0 341L0 313L0 313L0 284L0 284L0 256L0 256L0 227L0 227L0 199L0 199L0 171L0 171L0 142L0 142L0 114L0 114L0 85L0 85L0 57L0 57L0 28L0 28L0 0L0 0Z"
        fill="#bf6311"></path>
    <path
        d="M556 0L533 0L533 28L527 28L527 57L470 57L470 85L490 85L490 114L490 114L490 142L545 142L545 171L473 171L473 199L571 199L571 227L543 227L543 256L600 256L600 284L624 284L624 313L464 313L464 341L465 341L465 369L472 369L472 398L497 398L497 426L557 426L557 455L504 455L504 483L584 483L584 512L518 512L518 540L0 540L0 512L0 512L0 483L0 483L0 455L0 455L0 426L0 426L0 398L0 398L0 369L0 369L0 341L0 341L0 313L0 313L0 284L0 284L0 256L0 256L0 227L0 227L0 199L0 199L0 171L0 171L0 142L0 142L0 114L0 114L0 85L0 85L0 57L0 57L0 28L0 28L0 0L0 0Z"
        fill="#b45a12"></path>
    <path
        d="M484 0L440 0L440 28L497 28L497 57L523 57L523 85L391 85L391 114L419 114L419 142L536 142L536 171L489 171L489 199L484 199L484 227L413 227L413 256L515 256L515 284L405 284L405 313L404 313L404 341L520 341L520 369L530 369L530 398L513 398L513 426L445 426L445 455L394 455L394 483L520 483L520 512L484 512L484 540L0 540L0 512L0 512L0 483L0 483L0 455L0 455L0 426L0 426L0 398L0 398L0 369L0 369L0 341L0 341L0 313L0 313L0 284L0 284L0 256L0 256L0 227L0 227L0 199L0 199L0 171L0 171L0 142L0 142L0 114L0 114L0 85L0 85L0 57L0 57L0 28L0 28L0 0L0 0Z"
        fill="#a95213"></path>
    <path
        d="M475 0L423 0L423 28L356 28L356 57L449 57L449 85L456 85L456 114L415 114L415 142L413 142L413 171L374 171L374 199L378 199L378 227L402 227L402 256L330 256L330 284L425 284L425 313L387 313L387 341L387 341L387 369L466 369L466 398L371 398L371 426L464 426L464 455L432 455L432 483L386 483L386 512L354 512L354 540L0 540L0 512L0 512L0 483L0 483L0 455L0 455L0 426L0 426L0 398L0 398L0 369L0 369L0 341L0 341L0 313L0 313L0 284L0 284L0 256L0 256L0 227L0 227L0 199L0 199L0 171L0 171L0 142L0 142L0 114L0 114L0 85L0 85L0 57L0 57L0 28L0 28L0 0L0 0Z"
        fill="#9f4a13"></path>
    <path
        d="M335 0L297 0L297 28L386 28L386 57L378 57L378 85L387 85L387 114L309 114L309 142L379 142L379 171L308 171L308 199L329 199L329 227L307 227L307 256L411 256L411 284L289 284L289 313L275 313L275 341L277 341L277 369L382 369L382 398L277 398L277 426L330 426L330 455L349 455L349 483L396 483L396 512L340 512L340 540L0 540L0 512L0 512L0 483L0 483L0 455L0 455L0 426L0 426L0 398L0 398L0 369L0 369L0 341L0 341L0 313L0 313L0 284L0 284L0 256L0 256L0 227L0 227L0 199L0 199L0 171L0 171L0 142L0 142L0 114L0 114L0 85L0 85L0 57L0 57L0 28L0 28L0 0L0 0Z"
        fill="#944213"></path>
    <path
        d="M218 0L269 0L269 28L313 28L313 57L227 57L227 85L325 85L325 114L271 114L271 142L329 142L329 171L217 171L217 199L239 199L239 227L226 227L226 256L333 256L333 284L275 284L275 313L251 313L251 341L211 341L211 369L314 369L314 398L318 398L318 426L245 426L245 455L300 455L300 483L246 483L246 512L303 512L303 540L0 540L0 512L0 512L0 483L0 483L0 455L0 455L0 426L0 426L0 398L0 398L0 369L0 369L0 341L0 341L0 313L0 313L0 284L0 284L0 256L0 256L0 227L0 227L0 199L0 199L0 171L0 171L0 142L0 142L0 114L0 114L0 85L0 85L0 57L0 57L0 28L0 28L0 0L0 0Z"
        fill="#893b12"></path>
    <path
        d="M160 0L209 0L209 28L250 28L250 57L211 57L211 85L204 85L204 114L148 114L148 142L213 142L213 171L165 171L165 199L191 199L191 227L162 227L162 256L213 256L213 284L267 284L267 313L267 313L267 341L210 341L210 369L269 369L269 398L264 398L264 426L177 426L177 455L223 455L223 483L175 483L175 512L155 512L155 540L0 540L0 512L0 512L0 483L0 483L0 455L0 455L0 426L0 426L0 398L0 398L0 369L0 369L0 341L0 341L0 313L0 313L0 284L0 284L0 256L0 256L0 227L0 227L0 199L0 199L0 171L0 171L0 142L0 142L0 114L0 114L0 85L0 85L0 57L0 57L0 28L0 28L0 0L0 0Z"
        fill="#7e3411"></path>
    <path
        d="M151 0L120 0L120 28L191 28L191 57L184 57L184 85L109 85L109 114L87 114L87 142L165 142L165 171L137 171L137 199L184 199L184 227L147 227L147 256L136 256L136 284L98 284L98 313L135 313L135 341L176 341L176 369L150 369L150 398L126 398L126 426L91 426L91 455L104 455L104 483L166 483L166 512L190 512L190 540L0 540L0 512L0 512L0 483L0 483L0 455L0 455L0 426L0 426L0 398L0 398L0 369L0 369L0 341L0 341L0 313L0 313L0 284L0 284L0 256L0 256L0 227L0 227L0 199L0 199L0 171L0 171L0 142L0 142L0 114L0 114L0 85L0 85L0 57L0 57L0 28L0 28L0 0L0 0Z"
        fill="#732d10"></path>
    <path
        d="M83 0L40 0L40 28L105 28L105 57L37 57L37 85L36 85L36 114L34 114L34 142L46 142L46 171L93 171L93 199L82 199L82 227L98 227L98 256L91 256L91 284L51 284L51 313L78 313L78 341L50 341L50 369L91 369L91 398L106 398L106 426L29 426L29 455L125 455L125 483L75 483L75 512L68 512L68 540L0 540L0 512L0 512L0 483L0 483L0 455L0 455L0 426L0 426L0 398L0 398L0 369L0 369L0 341L0 341L0 313L0 313L0 284L0 284L0 256L0 256L0 227L0 227L0 199L0 199L0 171L0 171L0 142L0 142L0 114L0 114L0 85L0 85L0 57L0 57L0 28L0 28L0 0L0 0Z"
        fill="#68260e"></path>
</svg>