<svg id="visual" viewBox="0 0 960 540" width="960" height="540" xmlns="http://www.w3.org/2000/svg"
    xmlns:xlink="http://www.w3.org/1999/xlink" version="1.1">
    <rect x="0" y="0" width="960" height="540" fill="#573f00"></rect>
    <path
        d="M881 0L758 0L758 28L752 28L752 57L788 57L788 85L770 85L770 114L808 114L808 142L901 142L901 171L813 171L813 199L767 199L767 227L826 227L826 256L757 256L757 284L733 284L733 313L903 313L903 341L780 341L780 369L914 369L914 398L707 398L707 426L867 426L867 455L837 455L837 483L907 483L907 512L885 512L885 540L0 540L0 512L0 512L0 483L0 483L0 455L0 455L0 426L0 426L0 398L0 398L0 369L0 369L0 341L0 341L0 313L0 313L0 284L0 284L0 256L0 256L0 227L0 227L0 199L0 199L0 171L0 171L0 142L0 142L0 114L0 114L0 85L0 85L0 57L0 57L0 28L0 28L0 0L0 0Z"
        fill="#de7e08"></path>
    <path
        d="M801 0L804 0L804 28L669 28L669 57L735 57L735 85L744 85L744 114L823 114L823 142L773 142L773 171L812 171L812 199L768 199L768 227L647 227L647 256L744 256L744 284L804 284L804 313L729 313L729 341L788 341L788 369L671 369L671 398L694 398L694 426L824 426L824 455L760 455L760 483L643 483L643 512L658 512L658 540L0 540L0 512L0 512L0 483L0 483L0 455L0 455L0 426L0 426L0 398L0 398L0 369L0 369L0 341L0 341L0 313L0 313L0 284L0 284L0 256L0 256L0 227L0 227L0 199L0 199L0 171L0 171L0 142L0 142L0 114L0 114L0 85L0 85L0 57L0 57L0 28L0 28L0 0L0 0Z"
        fill="#d4750c"></path>
    <path
        d="M694 0L667 0L667 28L733 28L733 57L671 57L671 85L657 85L657 114L695 114L695 142L634 142L634 171L613 171L613 199L754 199L754 227L659 227L659 256L619 256L619 284L578 284L578 313L594 313L594 341L667 341L667 369L575 369L575 398L647 398L647 426L603 426L603 455L732 455L732 483L734 483L734 512L720 512L720 540L0 540L0 512L0 512L0 483L0 483L0 455L0 455L0 426L0 426L0 398L0 398L0 369L0 369L0 341L0 341L0 313L0 313L0 284L0 284L0 256L0 256L0 227L0 227L0 199L0 199L0 171L0 171L0 142L0 142L0 114L0 114L0 85L0 85L0 57L0 57L0 28L0 28L0 0L0 0Z"
        fill="#c96c0f"></path>
    <path
        d="M546 0L663 0L663 28L696 28L696 57L603 57L603 85L601 85L601 114L625 114L625 142L527 142L527 171L611 171L611 199L556 199L556 227L650 227L650 256L588 256L588 284L654 284L654 313L564 313L564 341L683 341L683 369L595 369L595 398L672 398L672 426L632 426L632 455L573 455L573 483L675 483L675 512L606 512L606 540L0 540L0 512L0 512L0 483L0 483L0 455L0 455L0 426L0 426L0 398L0 398L0 369L0 369L0 341L0 341L0 313L0 313L0 284L0 284L0 256L0 256L0 227L0 227L0 199L0 199L0 171L0 171L0 142L0 142L0 114L0 114L0 85L0 85L0 57L0 57L0 28L0 28L0 0L0 0Z"
        fill="#bf6311"></path>
    <path
        d="M580 0L554 0L554 28L525 28L525 57L591 57L591 85L467 85L467 114L541 114L541 142L549 142L549 171L517 171L517 199L620 199L620 227L604 227L604 256L518 256L518 284L510 284L510 313L453 313L453 341L555 341L555 369L607 369L607 398L616 398L616 426L549 426L549 455L587 455L587 483L484 483L484 512L619 512L619 540L0 540L0 512L0 512L0 483L0 483L0 455L0 455L0 426L0 426L0 398L0 398L0 369L0 369L0 341L0 341L0 313L0 313L0 284L0 284L0 256L0 256L0 227L0 227L0 199L0 199L0 171L0 171L0 142L0 142L0 114L0 114L0 85L0 85L0 57L0 57L0 28L0 28L0 0L0 0Z"
        fill="#b45a12"></path>
    <path
        d="M415 0L400 0L400 28L441 28L441 57L508 57L508 85L501 85L501 114L471 114L471 142L399 142L399 171L499 171L499 199L423 199L423 227L412 227L412 256L496 256L496 284L422 284L422 313L395 313L395 341L508 341L508 369L496 369L496 398L394 398L394 426L460 426L460 455L409 455L409 483L431 483L431 512L554 512L554 540L0 540L0 512L0 512L0 483L0 483L0 455L0 455L0 426L0 426L0 398L0 398L0 369L0 369L0 341L0 341L0 313L0 313L0 284L0 284L0 256L0 256L0 227L0 227L0 199L0 199L0 171L0 171L0 142L0 142L0 114L0 114L0 85L0 85L0 57L0 57L0 28L0 28L0 0L0 0Z"
        fill="#a95213"></path>
    <path
        d="M416 0L438 0L438 28L411 28L411 57L447 57L447 85L441 85L441 114L397 114L397 142L448 142L448 171L404 171L404 199L469 199L469 227L403 227L403 256L341 256L341 284L343 284L343 313L361 313L361 341L402 341L402 369L338 369L338 398L337 398L337 426L373 426L373 455L445 455L445 483L362 483L362 512L371 512L371 540L0 540L0 512L0 512L0 483L0 483L0 455L0 455L0 426L0 426L0 398L0 398L0 369L0 369L0 341L0 341L0 313L0 313L0 284L0 284L0 256L0 256L0 227L0 227L0 199L0 199L0 171L0 171L0 142L0 142L0 114L0 114L0 85L0 85L0 57L0 57L0 28L0 28L0 0L0 0Z"
        fill="#9f4a13"></path>
    <path
        d="M365 0L370 0L370 28L370 28L370 57L372 57L372 85L333 85L333 114L349 114L349 142L378 142L378 171L398 171L398 199L296 199L296 227L292 227L292 256L410 256L410 284L373 284L373 313L308 313L308 341L298 341L298 369L364 369L364 398L292 398L292 426L287 426L287 455L332 455L332 483L341 483L341 512L300 512L300 540L0 540L0 512L0 512L0 483L0 483L0 455L0 455L0 426L0 426L0 398L0 398L0 369L0 369L0 341L0 341L0 313L0 313L0 284L0 284L0 256L0 256L0 227L0 227L0 199L0 199L0 171L0 171L0 142L0 142L0 114L0 114L0 85L0 85L0 57L0 57L0 28L0 28L0 0L0 0Z"
        fill="#944213"></path>
    <path
        d="M220 0L323 0L323 28L301 28L301 57L216 57L216 85L310 85L310 114L288 114L288 142L290 142L290 171L283 171L283 199L340 199L340 227L293 227L293 256L244 256L244 284L256 284L256 313L257 313L257 341L317 341L317 369L327 369L327 398L248 398L248 426L321 426L321 455L303 455L303 483L229 483L229 512L214 512L214 540L0 540L0 512L0 512L0 483L0 483L0 455L0 455L0 426L0 426L0 398L0 398L0 369L0 369L0 341L0 341L0 313L0 313L0 284L0 284L0 256L0 256L0 227L0 227L0 199L0 199L0 171L0 171L0 142L0 142L0 114L0 114L0 85L0 85L0 57L0 57L0 28L0 28L0 0L0 0Z"
        fill="#893b12"></path>
    <path
        d="M197 0L242 0L242 28L239 28L239 57L229 57L229 85L159 85L159 114L160 114L160 142L250 142L250 171L261 171L261 199L163 199L163 227L157 227L157 256L251 256L251 284L251 284L251 313L174 313L174 341L226 341L226 369L154 369L154 398L261 398L261 426L241 426L241 455L149 455L149 483L156 483L156 512L264 512L264 540L0 540L0 512L0 512L0 483L0 483L0 455L0 455L0 426L0 426L0 398L0 398L0 369L0 369L0 341L0 341L0 313L0 313L0 284L0 284L0 256L0 256L0 227L0 227L0 199L0 199L0 171L0 171L0 142L0 142L0 114L0 114L0 85L0 85L0 57L0 57L0 28L0 28L0 0L0 0Z"
        fill="#7e3411"></path>
    <path
        d="M160 0L123 0L123 28L129 28L129 57L178 57L178 85L160 85L160 114L135 114L135 142L153 142L153 171L86 171L86 199L127 199L127 227L178 227L178 256L87 256L87 284L145 284L145 313L150 313L150 341L114 341L114 369L109 369L109 398L174 398L174 426L95 426L95 455L89 455L89 483L145 483L145 512L101 512L101 540L0 540L0 512L0 512L0 483L0 483L0 455L0 455L0 426L0 426L0 398L0 398L0 369L0 369L0 341L0 341L0 313L0 313L0 284L0 284L0 256L0 256L0 227L0 227L0 199L0 199L0 171L0 171L0 142L0 142L0 114L0 114L0 85L0 85L0 57L0 57L0 28L0 28L0 0L0 0Z"
        fill="#732d10"></path>
    <path
        d="M64 0L88 0L88 28L39 28L39 57L26 57L26 85L100 85L100 114L56 114L56 142L37 142L37 171L121 171L121 199L64 199L64 227L94 227L94 256L95 256L95 284L74 284L74 313L28 313L28 341L115 341L115 369L96 369L96 398L56 398L56 426L69 426L69 455L61 455L61 483L84 483L84 512L65 512L65 540L0 540L0 512L0 512L0 483L0 483L0 455L0 455L0 426L0 426L0 398L0 398L0 369L0 369L0 341L0 341L0 313L0 313L0 284L0 284L0 256L0 256L0 227L0 227L0 199L0 199L0 171L0 171L0 142L0 142L0 114L0 114L0 85L0 85L0 57L0 57L0 28L0 28L0 0L0 0Z"
        fill="#68260e"></path>
</svg>